<svg xmlns="http://www.w3.org/2000/svg" width="363" height="339" viewBox="0 0 363 339">
  <g id="Group_74" data-name="Group 74" transform="translate(-35 -3765)">
    <text id="fehlende_Zähne_inkl._Nichtanlagen_" data-name="fehlende Zähne (inkl. Nichtanlagen)" transform="translate(71 3768)" font-size="14" font-family="Roboto-Medium, Roboto" font-weight="500"><tspan x="0" y="13">fehlende Zähne (inkl. Nichtanlagen)</tspan></text>
    <text id="kariöse_Zähne" data-name="kariöse Zähne" transform="translate(71 3800)" font-size="14" font-family="Roboto-Medium, Roboto" font-weight="500"><tspan x="0" y="13">kariöse Zähne</tspan></text>
    <text id="retinierte_verlagerte_Zähne" data-name="retinierte, verlagerte Zähne" transform="translate(71 3864)" font-size="14" font-family="Roboto-Medium, Roboto" font-weight="500"><tspan x="0" y="13">retinierte, verlagerte Zähne</tspan></text>
    <text id="Prothese_OK_UK_total_partiell" data-name="Prothese (OK/UK) total, partiell" transform="translate(71 3987)" font-size="14" font-family="Roboto-Medium, Roboto" font-weight="500"><tspan x="0" y="13">Prothese (OK/UK) total, partiell</tspan></text>
    <text id="Granulom_periapikale_Veränderungen_" data-name="Granulom (periapikale Veränderungen)" transform="translate(71 4019)" font-size="14" font-family="Roboto-Medium, Roboto" font-weight="500"><tspan x="0" y="13">Granulom (periapikale Veränderungen)</tspan></text>
    <text id="Füllungen" transform="translate(71 4051)" font-size="14" font-family="Roboto-Medium, Roboto" font-weight="500"><tspan x="0" y="13">Füllungen</tspan></text>
    <text id="Implantate" transform="translate(71 4083)" font-size="14" font-family="Roboto-Medium, Roboto" font-weight="500"><tspan x="0" y="13">Implantate</tspan></text>
    <text id="wurzelbehandelte_Zähne" data-name="wurzelbehandelte Zähne" transform="translate(71 3928)" font-size="14" font-family="Roboto-Medium, Roboto" font-weight="500"><tspan x="0" y="13">wurzelbehandelte Zähne</tspan></text>
    <text id="Brücken" transform="translate(71 3957)" font-size="14" font-family="Roboto-Medium, Roboto" font-weight="500"><tspan x="0" y="13">Brücken</tspan></text>
    <text id="devitale_unbehandelte_Zähne" data-name="devitale, unbehandelte Zähne" transform="translate(71 3896)" font-size="14" font-family="Roboto-Medium, Roboto" font-weight="500"><tspan x="0" y="13">devitale, unbehandelte Zähne</tspan></text>
    <text id="Krone_n_" data-name="Krone(n)" transform="translate(71 3832)" font-size="14" font-family="Roboto-Medium, Roboto" font-weight="500"><tspan x="0" y="13">Krone(n)</tspan></text>
    <g id="Group_63" data-name="Group 63" transform="translate(0 -13)">
      <g id="Ellipse_2" data-name="Ellipse 2" transform="translate(35 3778)" fill="none" stroke="#523f68" stroke-width="2">
        <circle cx="12" cy="12" r="12" stroke="none"/>
        <circle cx="12" cy="12" r="11" fill="none"/>
      </g>
      <g id="Group_62" data-name="Group 62" transform="translate(-25.868 0.336)">
        <line id="Line_37" data-name="Line 37" x2="14.69" y2="14.69" transform="translate(65.5 3782.5)" fill="none" stroke="#523f68" stroke-linecap="round" stroke-width="2"/>
        <line id="Line_38" data-name="Line 38" x1="14.69" y2="14.69" transform="translate(65.5 3782.5)" fill="none" stroke="#523f68" stroke-linecap="round" stroke-width="2"/>
      </g>
    </g>
    <g id="Group_64" data-name="Group 64" transform="translate(0 19)">
      <g id="Ellipse_2-2" data-name="Ellipse 2" transform="translate(35 3778)" fill="none" stroke="#523f68" stroke-width="2">
        <circle cx="12" cy="12" r="12" stroke="none"/>
        <circle cx="12" cy="12" r="11" fill="none"/>
      </g>
      <text id="K" transform="translate(42 3795)" fill="#523f68" font-size="15" font-family="Roboto-Medium, Roboto" font-weight="500"><tspan x="0" y="0">K</tspan></text>
    </g>
    <g id="Group_66" data-name="Group 66" transform="translate(0 83)">
      <g id="Ellipse_2-3" data-name="Ellipse 2" transform="translate(35 3778)" fill="none" stroke="#523f68" stroke-width="2">
        <circle cx="12" cy="12" r="12" stroke="none"/>
        <circle cx="12" cy="12" r="11" fill="none"/>
      </g>
      <text id="R" transform="translate(42.5 3795)" fill="#523f68" font-size="15" font-family="Roboto-Medium, Roboto" font-weight="500"><tspan x="0" y="0">R</tspan></text>
    </g>
    <g id="Group_70" data-name="Group 70" transform="translate(0 206)">
      <g id="Ellipse_2-4" data-name="Ellipse 2" transform="translate(35 3778)" fill="none" stroke="#523f68" stroke-width="2">
        <circle cx="12" cy="12" r="12" stroke="none"/>
        <circle cx="12" cy="12" r="11" fill="none"/>
      </g>
      <text id="P" transform="translate(42.5 3795)" fill="#523f68" font-size="15" font-family="Roboto-Medium, Roboto" font-weight="500"><tspan x="0" y="0">P</tspan></text>
    </g>
    <g id="Group_71" data-name="Group 71" transform="translate(0 238)">
      <g id="Ellipse_2-5" data-name="Ellipse 2" transform="translate(35 3778)" fill="none" stroke="#523f68" stroke-width="2">
        <circle cx="12" cy="12" r="12" stroke="none"/>
        <circle cx="12" cy="12" r="11" fill="none"/>
      </g>
      <text id="G" transform="translate(42 3795)" fill="#523f68" font-size="15" font-family="Roboto-Medium, Roboto" font-weight="500"><tspan x="0" y="0">G</tspan></text>
    </g>
    <g id="Group_72" data-name="Group 72" transform="translate(0 270)">
      <g id="Ellipse_2-6" data-name="Ellipse 2" transform="translate(35 3778)" fill="none" stroke="#523f68" stroke-width="2">
        <circle cx="12" cy="12" r="12" stroke="none"/>
        <circle cx="12" cy="12" r="11" fill="none"/>
      </g>
      <text id="F" transform="translate(43 3795)" fill="#523f68" font-size="15" font-family="Roboto-Medium, Roboto" font-weight="500"><tspan x="0" y="0">F</tspan></text>
    </g>
    <g id="Group_73" data-name="Group 73" transform="translate(0 302)">
      <g id="Ellipse_2-7" data-name="Ellipse 2" transform="translate(35 3778)" fill="none" stroke="#523f68" stroke-width="2">
        <circle cx="12" cy="12" r="12" stroke="none"/>
        <circle cx="12" cy="12" r="11" fill="none"/>
      </g>
      <text id="I" transform="translate(45 3795)" fill="#523f68" font-size="15" font-family="Roboto-Medium, Roboto" font-weight="500"><tspan x="0" y="0">I</tspan></text>
    </g>
    <g id="Group_68" data-name="Group 68" transform="translate(0 147)">
      <g id="Ellipse_2-8" data-name="Ellipse 2" transform="translate(35 3778)" fill="none" stroke="#523f68" stroke-width="2">
        <circle cx="12" cy="12" r="12" stroke="none"/>
        <circle cx="12" cy="12" r="11" fill="none"/>
      </g>
      <text id="WB" transform="translate(38 3794)" fill="#523f68" font-size="12" font-family="Roboto-Medium, Roboto" font-weight="500"><tspan x="0" y="0">WB</tspan></text>
    </g>
    <g id="Group_67" data-name="Group 67" transform="translate(0 115)">
      <g id="Ellipse_2-9" data-name="Ellipse 2" transform="translate(35 3778)" fill="none" stroke="#523f68" stroke-width="2">
        <circle cx="12" cy="12" r="12" stroke="none"/>
        <circle cx="12" cy="12" r="11" fill="none"/>
      </g>
      <line id="Line_39" data-name="Line 39" x1="9" transform="translate(42.5 3794.5)" fill="none" stroke="#523f68" stroke-linecap="round" stroke-width="2"/>
    </g>
    <g id="Group_65" data-name="Group 65" transform="translate(0 51)">
      <g id="Ellipse_2-10" data-name="Ellipse 2" transform="translate(35 3778)" fill="#523f68" stroke="#523f68" stroke-width="2">
        <circle cx="12" cy="12" r="12" stroke="none"/>
        <circle cx="12" cy="12" r="11" fill="none"/>
      </g>
    </g>
    <g id="Group_69" data-name="Group 69" transform="translate(0 3)">
      <circle id="Ellipse_3" data-name="Ellipse 3" cx="3.5" cy="3.5" r="3.5" transform="translate(37 3960)" fill="#523f68"/>
      <circle id="Ellipse_4" data-name="Ellipse 4" cx="3.5" cy="3.5" r="3.5" transform="translate(56 3960)" fill="#523f68"/>
      <line id="Line_40" data-name="Line 40" x2="19" transform="translate(40.5 3963.5)" fill="none" stroke="#523f68" stroke-width="1"/>
    </g>
  </g>
</svg>
