<svg width="24" height="24" viewBox="0 0 24 24" fill="none" xmlns="http://www.w3.org/2000/svg">
<path d="M3 22.9557V19.8526C3 18.7529 3.72446 17.7847 4.77945 17.4744L8.00336 16.5261C8.6062 16.3488 9.02018 15.7955 9.02018 15.1671V13.748" stroke="#B8B5D0" stroke-width="0.8" stroke-miterlimit="10" stroke-linecap="round" stroke-linejoin="round"/>
<path d="M20.0006 22.9557V19.8526C20.0006 18.7529 19.2762 17.7847 18.2212 17.4744L14.9973 16.5261C14.3945 16.3488 13.9805 15.7955 13.9805 15.1671V13.748" stroke="#B8B5D0" stroke-width="0.8" stroke-miterlimit="10" stroke-linecap="round" stroke-linejoin="round"/>
<path d="M13.9374 19.6396C13.1862 19.9509 12.3626 20.1227 11.4988 20.1227C9.23586 20.1227 7.24834 18.9435 6.11719 17.166" stroke="#B8B5D0" stroke-width="0.8" stroke-miterlimit="10" stroke-linecap="round" stroke-linejoin="round"/>
<path d="M16.9 17.1348C16.4313 17.8805 15.8125 18.5224 15.0859 19.0179" stroke="#B8B5D0" stroke-width="0.8" stroke-miterlimit="10" stroke-linecap="round" stroke-linejoin="round"/>
<path d="M15.4762 16.707C14.5725 17.9201 13.127 18.7057 11.4981 18.7057C9.87359 18.7057 8.4316 17.9244 7.52734 16.7171" stroke="#B8B5D0" stroke-width="0.8" stroke-miterlimit="10" stroke-linecap="round" stroke-linejoin="round"/>
<path d="M16.452 8.4375H16.629C17.118 8.4375 17.5143 8.83387 17.5143 9.32284C17.5143 9.81181 17.118 10.2082 16.629 10.2082H16.0977" stroke="#B8B5D0" stroke-width="0.8" stroke-miterlimit="10" stroke-linecap="round" stroke-linejoin="round"/>
<path d="M6.90087 10.2082H6.36968C5.88073 10.2082 5.48438 9.8118 5.48438 9.32284C5.48438 8.83387 5.88073 8.4375 6.36968 8.4375H6.54674" stroke="#B8B5D0" stroke-width="0.8" stroke-miterlimit="10" stroke-linecap="round" stroke-linejoin="round"/>
<path d="M16.1019 9.85547C16.1019 12.3981 14.0408 14.4593 11.4982 14.4593C8.9557 14.4593 6.89453 12.3981 6.89453 9.85547" stroke="#B8B5D0" stroke-width="0.8" stroke-miterlimit="10" stroke-linecap="round" stroke-linejoin="round"/>
<path d="M16.8103 8.43696L17.1124 5.2649C17.3302 2.97787 15.5318 1 13.2345 1H9.72769C8.74979 1 7.95703 1.79278 7.95703 2.77072" stroke="#B8B5D0" stroke-width="0.8" stroke-miterlimit="10" stroke-linecap="round" stroke-linejoin="round"/>
<path d="M8.23589 1.80273C6.73899 2.18042 5.68016 3.61454 5.84989 5.22692L6.18753 8.43468" stroke="#B8B5D0" stroke-width="0.8" stroke-miterlimit="10" stroke-linecap="round" stroke-linejoin="round"/>
<path d="M9.73047 6.77072C9.73047 5.79283 10.5231 5.00009 11.501 5C12.4583 4.99991 13.2718 5.8135 13.2717 6.77085C13.2717 7.64846 12.6332 8.37692 11.7954 8.51705C11.6257 8.54546 11.5011 8.69107 11.5011 8.86323V9.60384" stroke="#B8B5D0" stroke-width="0.8" stroke-miterlimit="10" stroke-linecap="round" stroke-linejoin="round"/>
<path d="M11.5005 11.0195H11.4961" stroke="#B8B5D0" stroke-width="0.8" stroke-miterlimit="10" stroke-linecap="round" stroke-linejoin="round"/>
</svg>
