<svg id="Icon_microphone" data-name="Icon/microphone" xmlns="http://www.w3.org/2000/svg" width="17.76" height="22.833" viewBox="0 0 17.76 22.833">
  <g id="Icon">
    <path id="Path_3" data-name="Path 3" d="M99.4,789a3.806,3.806,0,0,1,7.611,0v5.074a3.806,3.806,0,0,1-7.611,0Z" transform="translate(-94.326 -785.199)" fill="#603a8c"/>
    <path id="Path_4" data-name="Path 4" d="M104.748,802.457a8.882,8.882,0,0,0,7.611-8.79,1.269,1.269,0,0,0-2.537,0,6.343,6.343,0,0,1-12.685,0,1.269,1.269,0,0,0-2.537,0,8.881,8.881,0,0,0,7.611,8.79v2.627H98.405a1.269,1.269,0,0,0,0,2.537h10.148a1.269,1.269,0,0,0,0-2.537h-3.806Z" transform="translate(-94.6 -784.788)" fill="#603a8c"/>
  </g>
</svg>
